<?xml version="1.0" encoding="utf-8"?>
<!-- Generator: Adobe Illustrator 24.3.0, SVG Export Plug-In . SVG Version: 6.00 Build 0)  -->
<svg version="1.1" id="Layer_1" xmlns="http://www.w3.org/2000/svg" xmlns:xlink="http://www.w3.org/1999/xlink" x="0px" y="0px"
	 viewBox="0 0 250 137" style="enable-background:new 0 0 250 137;" xml:space="preserve">
<style type="text/css">
	.st0{fill:url(#SVGID_1_);}
	.st1{fill:none;}
	.st2{fill:url(#SVGID_2_);}
	.st3{fill:url(#SVGID_3_);}
	.st4{fill:url(#SVGID_4_);}
	.st5{fill:url(#SVGID_5_);}
	.st6{fill:url(#SVGID_6_);}
	.st7{fill:url(#SVGID_7_);}
	.st8{fill:url(#SVGID_8_);}
	.st9{fill:url(#SVGID_9_);}
	.st10{fill:url(#SVGID_10_);}
	.st11{fill:url(#SVGID_11_);}
</style>
<text transform="matrix(1 0 0 1 -77.2134 -19.916)" style="font-family:'HelveticaNeue-Bold'; font-size:31px;">SHAANTI</text>
<linearGradient id="SVGID_1_" gradientUnits="userSpaceOnUse" x1="81" y1="-22.5" x2="114" y2="-22.5">
	<stop  offset="0" style="stop-color:#EEC11E"/>
	<stop  offset="4.774399e-02" style="stop-color:#EDB81D"/>
	<stop  offset="0.1272" style="stop-color:#E99E19"/>
	<stop  offset="0.2285" style="stop-color:#E27513"/>
	<stop  offset="0.3464" style="stop-color:#DA3C0B"/>
	<stop  offset="0.4445" style="stop-color:#D20703"/>
	<stop  offset="0.7087" style="stop-color:#770304"/>
	<stop  offset="0.9944" style="stop-color:#970000"/>
</linearGradient>
<rect x="81" y="-29" class="st0" width="33" height="13"/>
<g>
	<rect x="12.9" y="56.3" class="st1" width="5.4" height="0"/>
	<g>
		<linearGradient id="SVGID_2_" gradientUnits="userSpaceOnUse" x1="26.7068" y1="16.2208" x2="10.7493" y2="189.3594">
			<stop  offset="0" style="stop-color:#D20703"/>
			<stop  offset="0.5523" style="stop-color:#770304"/>
			<stop  offset="0.9944" style="stop-color:#970000"/>
		</linearGradient>
		<path class="st2" d="M13.6,71.7c0,1.3,0.2,2.4,0.7,3.3c0.5,0.9,1.1,1.6,1.8,2.2c0.8,0.6,1.7,1,2.7,1.2c1,0.3,2.1,0.4,3.2,0.4
			c0.7,0,1.5-0.1,2.4-0.2c0.9-0.1,1.7-0.4,2.4-0.7c0.7-0.4,1.4-0.8,1.9-1.5c0.5-0.6,0.7-1.4,0.7-2.4c0-1-0.3-1.9-1-2.5
			c-0.7-0.6-1.5-1.2-2.6-1.6c-1.1-0.4-2.3-0.8-3.6-1.1c-1.4-0.3-2.7-0.6-4.1-1c-1.4-0.4-2.8-0.8-4.2-1.3c-1.4-0.5-2.6-1.2-3.6-2
			c-1.1-0.8-1.9-1.8-2.6-3c-0.7-1.2-1-2.7-1-4.5c0-2,0.4-3.7,1.3-5.1c0.8-1.4,1.9-2.6,3.3-3.6c1.4-1,2.9-1.7,4.6-2.1
			c1.7-0.5,3.4-0.7,5.1-0.7c2,0,3.9,0.2,5.7,0.7c1.8,0.4,3.5,1.2,4.9,2.2c1.4,1,2.6,2.3,3.4,3.8c0.8,1.5,1.3,3.4,1.3,5.6h-8.1
			c-0.1-1.1-0.3-2.1-0.7-2.8c-0.4-0.7-1-1.3-1.6-1.8c-0.7-0.4-1.5-0.7-2.3-0.9c-0.9-0.2-1.8-0.3-2.8-0.3c-0.7,0-1.4,0.1-2,0.2
			c-0.7,0.1-1.3,0.4-1.8,0.7c-0.6,0.4-1,0.8-1.4,1.4c-0.4,0.6-0.5,1.2-0.5,2c0,0.7,0.1,1.4,0.4,1.8c0.3,0.5,0.8,0.9,1.7,1.3
			c0.8,0.4,2,0.8,3.5,1.2c1.5,0.4,3.4,0.9,5.8,1.5c0.5,0.1,1.1,0.3,1.8,0.5c0.7,0.2,1.5,0.5,2.4,0.8c0.8,0.3,1.7,0.8,2.5,1.3
			c0.8,0.5,1.6,1.2,2.3,2c0.7,0.8,1.3,1.7,1.7,2.8c0.4,1.1,0.6,2.3,0.6,3.8c0,1.7-0.3,3.4-1,4.9c-0.7,1.5-1.7,2.8-3,3.9
			c-1.3,1.1-3,1.9-5,2.6s-4.3,0.9-6.9,0.9c-2.1,0-4.1-0.3-6.1-0.8c-2-0.5-3.7-1.4-5.2-2.5c-1.5-1.1-2.7-2.5-3.6-4.2
			c-0.9-1.7-1.3-3.7-1.3-6.1H13.6z"/>
		<linearGradient id="SVGID_3_" gradientUnits="userSpaceOnUse" x1="62.8947" y1="19.5561" x2="46.9372" y2="192.6947">
			<stop  offset="0" style="stop-color:#D20703"/>
			<stop  offset="0.5523" style="stop-color:#770304"/>
			<stop  offset="0.9944" style="stop-color:#970000"/>
		</linearGradient>
		<path class="st3" d="M42.6,46.2H51v14.6h15.4V46.2h8.4v38.1h-8.4V67.9H51v16.4h-8.4V46.2z"/>
		<linearGradient id="SVGID_4_" gradientUnits="userSpaceOnUse" x1="104.1241" y1="4.2806" x2="88.1666" y2="177.4192">
			<stop  offset="0" style="stop-color:#D20703"/>
			<stop  offset="0.5523" style="stop-color:#770304"/>
			<stop  offset="0.9944" style="stop-color:#970000"/>
		</linearGradient>
		<path class="st4" d="M92.6,46.2h8.6l14.3,38.1h-8.7l-2.9-8.5H89.6l-3,8.5h-8.5L92.6,46.2z M91.8,69.6h9.9l-4.8-14h-0.1L91.8,69.6z
			"/>
		<linearGradient id="SVGID_5_" gradientUnits="userSpaceOnUse" x1="140.4734" y1="6.6858" x2="124.5159" y2="179.8244">
			<stop  offset="0" style="stop-color:#D20703"/>
			<stop  offset="0.5001" style="stop-color:#770304"/>
			<stop  offset="0.9944" style="stop-color:#970000"/>
		</linearGradient>
		<path class="st5" d="M129.1,46.2h8.6L152,84.4h-8.7l-2.9-8.5h-14.3l-3,8.5h-8.5L129.1,46.2z M128.3,69.6h9.9l-4.8-14h-0.1
			L128.3,69.6z"/>
		<linearGradient id="SVGID_6_" gradientUnits="userSpaceOnUse" x1="174.6449" y1="29.8556" x2="158.6875" y2="202.9942">
			<stop  offset="0" style="stop-color:#D20703"/>
			<stop  offset="0.5523" style="stop-color:#770304"/>
			<stop  offset="0.9944" style="stop-color:#970000"/>
		</linearGradient>
		<path class="st6" d="M155.3,46.2h8.3l15.9,25.6h0.1V46.2h7.8v38.1h-8.4l-15.9-25.5h-0.1v25.5h-7.8V46.2z"/>
		<linearGradient id="SVGID_7_" gradientUnits="userSpaceOnUse" x1="209.0112" y1="33.023" x2="193.0537" y2="206.1617">
			<stop  offset="0" style="stop-color:#D20703"/>
			<stop  offset="0.5523" style="stop-color:#770304"/>
			<stop  offset="0.9944" style="stop-color:#970000"/>
		</linearGradient>
		<path class="st7" d="M203.3,53.3h-11.4v-7h31.2v7h-11.4v31.1h-8.4V53.3z"/>
		<linearGradient id="SVGID_8_" gradientUnits="userSpaceOnUse" x1="234.4117" y1="35.3641" x2="218.4542" y2="208.5027">
			<stop  offset="0" style="stop-color:#D20703"/>
			<stop  offset="0.5523" style="stop-color:#770304"/>
			<stop  offset="0.9944" style="stop-color:#970000"/>
		</linearGradient>
		<path class="st8" d="M227.5,46.2h8.4v38.1h-8.4V46.2z"/>
	</g>
	<linearGradient id="SVGID_9_" gradientUnits="userSpaceOnUse" x1="209.5565" y1="108.7693" x2="14.9506" y2="108.7693">
		<stop  offset="0" style="stop-color:#EEC11E"/>
		<stop  offset="4.774399e-02" style="stop-color:#EDB81D"/>
		<stop  offset="0.1272" style="stop-color:#E99E19"/>
		<stop  offset="0.2285" style="stop-color:#E27513"/>
		<stop  offset="0.3464" style="stop-color:#DA3C0B"/>
		<stop  offset="0.4445" style="stop-color:#D20703"/>
		<stop  offset="0.7087" style="stop-color:#770304"/>
		<stop  offset="0.9944" style="stop-color:#970000"/>
	</linearGradient>
	<path class="st9" d="M15,89.8c0,0,19.7,32.8,50.3,37.2c39.5,5.6,50.3,2.2,72.2-4.4c17.9-5.4,52.5-24.1,65.6-26.2
		c0,0-19.7,0-54.7,15.3S87.1,124.8,74,122.6c0,0,21.9,4.4,65.6-13.1s70-15.3,70-15.3s-21.9-13.1-61.2-2.2s-43.7,17.5-78.7,17.5
		C42.3,109.5,15,89.8,15,89.8z"/>
	<linearGradient id="SVGID_10_" gradientUnits="userSpaceOnUse" x1="64.2909" y1="27.3883" x2="244" y2="27.3883">
		<stop  offset="0" style="stop-color:#EEC11E"/>
		<stop  offset="4.774399e-02" style="stop-color:#EDB81D"/>
		<stop  offset="0.1272" style="stop-color:#E99E19"/>
		<stop  offset="0.2285" style="stop-color:#E27513"/>
		<stop  offset="0.3464" style="stop-color:#DA3C0B"/>
		<stop  offset="0.4445" style="stop-color:#D20703"/>
		<stop  offset="0.7087" style="stop-color:#770304"/>
		<stop  offset="0.9944" style="stop-color:#970000"/>
	</linearGradient>
	<path class="st10" d="M64.3,38.3c0,0,41.5-27.6,82.9-32.3s78.3,6.9,94.5,30c0,0-32.3-32.3-89.9-23c-50.9,8.1-50.7,11.5-50.7,11.5
		s41.5-11.5,73.7-9.2s57.6,9.2,69.1,34.6c0,0-22.9-24.5-66.8-27.6C144.9,19.8,98.9,22.1,64.3,38.3z"/>
</g>
<linearGradient id="SVGID_11_" gradientUnits="userSpaceOnUse" x1="137" y1="-20" x2="192" y2="-20">
	<stop  offset="0" style="stop-color:#D20703"/>
	<stop  offset="0.5523" style="stop-color:#770304"/>
	<stop  offset="0.9944" style="stop-color:#970000"/>
</linearGradient>
<rect x="137" y="-29" class="st11" width="55" height="18"/>
</svg>
